<svg width="80" height="160" viewBox="0 0 80 160" fill="none" xmlns="http://www.w3.org/2000/svg">
<mask id="path-1-inside-1_22_376" fill="white">
<path d="M0 160C21.2173 160 41.5656 151.571 56.5685 136.569C71.5714 121.566 80 101.217 80 80C80 58.7827 71.5715 38.4344 56.5686 23.4315C41.5656 8.42855 21.2173 4.13117e-06 1.52588e-05 0V8C19.0956 8 37.4091 15.5857 50.9117 29.0883C64.4143 42.5909 72 60.9044 72 80C72 99.0956 64.4143 117.409 50.9117 130.912C37.4091 144.414 19.0956 152 0 152V160Z"/>
</mask>
<path d="M0 160C21.2173 160 41.5656 151.571 56.5685 136.569C71.5714 121.566 80 101.217 80 80C80 58.7827 71.5715 38.4344 56.5686 23.4315C41.5656 8.42855 21.2173 4.13117e-06 1.52588e-05 0V8C19.0956 8 37.4091 15.5857 50.9117 29.0883C64.4143 42.5909 72 60.9044 72 80C72 99.0956 64.4143 117.409 50.9117 130.912C37.4091 144.414 19.0956 152 0 152V160Z" stroke="#0052CC" stroke-width="16" mask="url(#path-1-inside-1_22_376)"/>
</svg>
