<svg width="38" height="48" viewBox="0 0 38 48" fill="none" xmlns="http://www.w3.org/2000/svg">
<path fill-rule="evenodd" clip-rule="evenodd" d="M25.2793 0.924547C24.1997 0.665353 23.0802 0.665886 21.5985 0.666591L13.7703 0.666665C11.892 0.666635 10.3418 0.666611 9.07905 0.769785C7.76749 0.876944 6.56185 1.10693 5.4294 1.68394C3.67323 2.57876 2.24541 4.00658 1.35059 5.76275C0.773577 6.8952 0.543593 8.10085 0.436434 9.41241C0.333261 10.6752 0.333285 12.2253 0.333314 14.1036V33.8964C0.333285 35.7746 0.333261 37.3248 0.436434 38.5876C0.543593 39.8992 0.773576 41.1048 1.35059 42.2372C2.24541 43.9934 3.67323 45.4212 5.4294 46.3161C6.56185 46.8931 7.7675 47.1231 9.07906 47.2302C10.3418 47.3334 11.892 47.3334 13.7702 47.3333H24.2297C26.108 47.3334 27.6581 47.3334 28.9209 47.2302C30.2325 47.1231 31.4381 46.8931 32.5706 46.3161C34.3267 45.4212 35.7546 43.9934 36.6494 42.2372C37.2264 41.1048 37.4564 39.8992 37.5635 38.5876C37.6667 37.3248 37.6667 35.7746 37.6666 33.8964L37.6667 16.7348C37.6674 15.2532 37.668 14.1336 37.4088 13.054C37.1801 12.1017 36.803 11.1912 36.2913 10.3562C35.7112 9.40949 34.9192 8.61825 33.871 7.57107L30.7623 4.46234C29.7151 3.41415 28.9238 2.62215 27.9771 2.04202C27.1421 1.53029 26.2316 1.15318 25.2793 0.924547ZM21.3333 5.33333H13.8666C11.868 5.33333 10.5093 5.33515 9.45907 5.42095C8.4361 5.50453 7.91296 5.65603 7.54803 5.84197C6.66994 6.28938 5.95603 7.00329 5.50862 7.88138C5.32268 8.24631 5.17118 8.76945 5.0876 9.79242C5.0018 10.8426 4.99998 12.2013 4.99998 14.2V33.8C4.99998 35.7987 5.0018 37.1574 5.0876 38.2076C5.17118 39.2305 5.32268 39.7537 5.50862 40.1186C5.95603 40.9967 6.66994 41.7106 7.54803 42.158C7.91296 42.344 8.4361 42.4955 9.45907 42.579C10.5093 42.6648 11.868 42.6667 13.8667 42.6667H24.1333C26.132 42.6667 27.4907 42.6648 28.5409 42.579C29.5639 42.4955 30.087 42.344 30.4519 42.158C31.33 41.7106 32.0439 40.9967 32.4913 40.1186C32.6773 39.7537 32.8288 39.2305 32.9124 38.2076C32.9982 37.1574 33 35.7987 33 33.8V17H28.3333C24.4673 17 21.3333 13.866 21.3333 9.99999V5.33333ZM31.9733 12.3333C31.6929 12.0017 31.245 11.5449 30.403 10.7028L27.6305 7.93032C26.7884 7.08826 26.3316 6.64046 26 6.36005V9.99999C26 11.2887 27.0446 12.3333 28.3333 12.3333H31.9733Z" fill="#6B7280"/>
</svg>
